<?xml version="1.0" encoding="utf-8"?>
<svg viewBox="74 106 59 84" width="472px" height="672px" xmlns="http://www.w3.org/2000/svg">
  <path d="M85.3 154.91l-2.37 5.106s-9.383-3.316-8.01-6.497c1.372-3.19 10.38 1.39 10.38 1.39zm38.548 7.448l-2.31 5.13s8.647 4.928 10.155 1.808c1.507-3.12-7.845-6.938-7.845-6.938zm-9.8 16.898l-5.62-.285s-1.44 9.85 2.014 10.12c3.455.27 3.606-9.83 3.606-9.83zm-21.335.434l5.566-.825s2.38 9.663-1.03 10.263c-3.42.6-4.54-9.438-4.54-9.438z" fill="#e8b699"/>
  <path d="M75.866 152.624c-.428.176-.76.462-.947.895-1.38 3.18 8.01 6.49 8.01 6.49l.72-1.56c-5.41-1.4-8.86-4.1-7.79-5.84zm19.522 26.67l-2.675.396c0 .003 1.1 9.81 4.422 9.453-2.048-.103-3.5-9.052-1.747-9.85zm13.042-.324s-1.442 9.85 2.012 10.118c-1.662-.518-1.228-6.122-.914-10.06zm14.15-13.796l-1.043 2.314s2.426 1.376 4.93 2.213c-3.104-2.01-3.083-3.28-3.887-4.52z" opacity=".15" fill="#000000"/>
  <path d="M124.44 155.818c0 14.315-2.77 25.92-20.83 25.92s-20.83-11.605-20.83-25.92c0-14.314 2.4-25.68 20.83-25.92 18.427-.237 20.83 11.606 20.83 25.92z" fill="#aad5e3" paint-order="stroke fill markers"/>
  <path d="M99.593 130.154c-14.77 1.77-16.815 12.463-16.815 25.664 0 10.727 1.478 21.115 11.945 24.67-5.564-7.223-7.607-16.863-4.59-21.704.425-.683.95-1.27 1.582-1.74l2.34-20.736c-.244-3.183 1.505-5.287 5.538-6.154z" opacity=".15" fill="#100722" paint-order="stroke fill markers"/>
  <path d="M101.79 158.604h3.968s1.338 3.123.472 3.97c-.865.844-4.3.908-5.055 0-.757-.91.614-3.97.614-3.97z" fill="#ffffff"/>
  <path d="M101.79 158.604s-1.37 3.06-.615 3.97c.382.46 1.45.67 2.523.656-3.825-.495.154-6.333.075-4.626z" opacity=".15" fill="#000000"/>
  <path d="M107.404 159.026c-1.213 1.312-1.928.137-3.66.137-1.732 0-2.526 1.058-3.333.2-.8-.858-1.54-3.413 3.32-3.575 4.86-.16 4.89 1.925 3.68 3.238z" fill="#e8b699" paint-order="stroke fill markers"/>
  <path d="M103.73 155.788c-4.82.138-4.126 2.717-3.32 3.575.49.484.865.36 1.523.158-2.15-1.48-.183-3.96 2.242-3.72-.145-.01-.292-.01-.446-.01z" opacity=".15" fill="#000000" paint-order="stroke fill markers"/>
  <path d="M106.26 155.44c0 .885-1.058 1.225-2.363 1.225-1.304 0-2.362-.34-2.362-1.225 0-.886 1.058-1.982 2.362-1.982 1.305 0 2.363 1.096 2.363 1.982z" fill="#323232" paint-order="stroke fill markers"/>
  <path d="M118.114 121.78c4.316-1.77 5.762-3.87 3.547-6.987-2.21-3.117-1.37-7.072.51-7.93-1.25 2.654 1.87 4.913 3.85 7.81 1.98 2.896 2.27 9.348-2.67 11.514-3.24-.668-7.22-.94-5.23-4.408z" fill="#dbdbdb"/>
  <path d="M82.598 139.997c.282-11.15 5.277-21.582 21.366-25.16 14.657 3.26 20.792 12.13 21.366 25.16-17.1-7.112-30.636-5.347-42.732 0z" fill="#818181"/>
  <path d="M89.034 122.497c-4.316-1.77-5.762-3.87-3.547-6.986 2.215-3.11 1.37-7.07-.51-7.93 1.25 2.66-1.865 4.92-3.84 7.81-1.977 2.9-2.266 9.35 2.667 11.52 3.24-.66 7.22-.94 5.23-4.4z" fill="#dbdbdb"/>
  <path d="M102.107 115.3c-.427.114-.844.235-1.254.36h-.002l-.3.09v.01c-12.47 3.94-17.06 12.627-17.83 22.14 5.78-2.633 7.62-7.432 7.65-9.793 3.215-2.08 1.09-7.718 8.6-9.436 1.25.47-.442 8.62-.442 8.62l4.3.63.44-12.23z" opacity=".15" fill="#000000"/>
  <path d="M100.188 127.913h7.537s-.962-12.797-1.21-13.24c-.25-.44-1.437-1.06-1.437-1.06s-.114-1.54-.277-2.833c-.16-1.293-.78-1.595-.92 0-.14 1.596-.23 2.833-.23 2.833s-1.17.61-1.43 1.06c-.26.453-2.02 13.24-2.02 13.24z" fill="#a8a8a8"/>
  <path d="M91.395 135.925l2.08 1.89c5.81-.88 12.71-1.14 18.897-.047l2.22-1.795s-9.732-2.882-23.197-.048zm30.775-29.063c-1.88.858-2.725 4.814-.51 7.93 2.216 3.118.77 5.218-3.546 6.987-.847 1.47-.61 2.37.188 2.96 2.936-1.76 6.43-4.75 5.833-7.1-.69-2.71-5.734-6.27-1.965-10.79z" opacity=".15" fill="#000000"/>
  <path d="M117.542 121.25l1.56 6.837c-5.117 2.563-7.658-7.648-1.56-6.837z" opacity=".15" fill="#000000"/>
  <path d="M120.713 120.44c-.407-.705-2.232.074-3.17.81-3.492 2.334 1.243 9.278 5.13 6.897 1.19-.688 2.897-2.324 2.212-2.9-3.008.334-5.122-2.75-4.172-4.807z" fill="#595959"/>
  <path d="M84.978 107.58c1.25 2.655-1.866 4.913-3.842 7.81-1.976 2.896-2.265 9.35 2.668 11.514 1.655-.34 3.5-.58 4.647-1.192-2.86-1.088-7.77-4.678-5.4-9.15 2.4-4.53 3.78-6.67 1.93-8.982z" opacity=".15" fill="#000000"/>
  <path d="M86.433 121.197c.407-.705 2.23.075 3.17.81 3.49 2.334-1.244 9.278-5.13 6.898-1.192-.69-2.898-2.324-2.213-2.9 3.008.334 5.122-2.75 4.173-4.808z" fill="#595959"/>
  <path d="M85.933 124.36c-.774 1.06-2.1 1.82-3.673 1.646-.685.575 1.02 2.21 2.213 2.9 2.118 1.296 4.484-.177 5.638-2.162-1.04 1.626-5.3-1.11-4.17-2.383z" opacity=".15" fill="#000000"/>
  <path d="M82.803 131.71c-3.002 5.428-.72 10.156 1.495 8.823 3.473-6.016 36.36-5.467 39.815.52 2.564 1.645 4.69-1.78 1.34-9.21-3.35-7.43-38.702-6.412-42.65-.134-3.947 6.27 0 0 0 0z" fill="#a8a8a8"/>
  <path d="M120.297 131.49v3.93c-1.71-.44-2.018-3.417 0-3.93z" opacity=".15" fill="#000000"/>
  <path d="M89.685 128.264c-3.133.73-6.114 2.084-6.844 3.387-3.03 5.42-.8 10.22 1.46 8.89.94-1.61 4-2.75 8.04-3.44-8.22 2.88-5.55-7.77-2.65-8.82z" opacity=".15" fill="#080808"/>
  <circle cx="91.986" cy="146.893" r="10.163" fill="#ffffff" paint-order="stroke fill markers"/>
  <circle cx="115.744" cy="146.008" r="10.163" fill="#ffffff" paint-order="stroke fill markers"/>
  <circle cx="111.887" cy="145.994" r="2.226" fill="#323232" paint-order="stroke fill markers"/>
  <circle cx="113" cy="145.353" r=".666" fill="#ffffff" paint-order="stroke fill markers"/>
  <path d="M91.986 136.73c-5.613 0-10.163 4.55-10.163 10.163.005 5.503 4.39 10.003 9.892 10.15-11.76-3.396-7.24-20.934 2.27-20.114-.66-.14-1.328-.2-2-.2zm23.758-.885c-5.613 0-10.163 4.55-10.163 10.163.01 5.503 4.4 10.003 9.9 10.15-11.76-3.396-7.24-20.934 2.27-20.114-.66-.132-1.33-.2-2-.2z" opacity=".15" fill="#000000" paint-order="stroke fill markers"/>
  <path d="M103.845 128.277l.142 6.557c-5.686.117-4.804-7.182-.142-6.557z" opacity=".15" fill="#000000"/>
  <circle cx="104.01" cy="131.464" r="3.441" fill="#818181" paint-order="stroke fill markers"/>
  <path d="M103.868 128.027c-1.843.077-3.298 1.592-3.3 3.437.003 1.843 1.458 3.358 3.3 3.434-3.12-1.173-2.442-6.21 0-6.87z" opacity=".15" fill="#0b0b0b" paint-order="stroke fill markers"/>
  <path d="M94.374 129.64l.1 4.62c-4.008.084-3.386-5.06-.1-4.62z" opacity=".15" fill="#000000"/>
  <circle cx="94.49" cy="131.886" r="2.425" fill="#818181" paint-order="stroke fill markers"/>
  <path d="M94.39 129.464c-1.3.054-2.324 1.122-2.325 2.422.002 1.3 1.027 2.367 2.325 2.42-2.2-.826-1.72-4.376 0-4.842z" opacity=".15" fill="#0b0b0b" paint-order="stroke fill markers"/>
  <path d="M88.888 133.276c0 1.117-.49 2.023-1.606 2.023-1.118 0-2.024-.91-2.024-2.03 0-1.12.906-2.03 2.024-2.03 1.117 0 1.606.9 1.606 2.02z" fill="#818181" paint-order="stroke fill markers"/>
  <path d="M113.77 129.71l.098 4.622c-4.007.083-3.385-5.062-.1-4.62z" opacity=".15" fill="#000000"/>
  <circle cx="113.885" cy="131.957" r="2.425" fill="#818181" paint-order="stroke fill markers"/>
  <path d="M113.785 129.535c-1.3.053-2.325 1.122-2.325 2.422.002 1.3 1.027 2.366 2.325 2.42-2.2-.826-1.72-4.376 0-4.842z" opacity=".15" fill="#0b0b0b" paint-order="stroke fill markers">
    <title>Viking Gopher</title>
  </path>
  <path d="M119.14 133.455c0 1.118.49 2.024 1.608 2.024 1.117 0 2.023-.91 2.023-2.03s-.9-2.03-2.02-2.03-1.6.9-1.6 2.02zm5.896 2.027c.057 1.117.175 2.074 1.29 2.017 1.117-.06 1.926-1.01 1.87-2.13-.058-1.12-.96-1.98-2.076-1.92-1.116.05-1.14.91-1.084 2.02zm-41.66-.374c-.056 1.116-.11 2.07-1.225 2.014-1.11-.056-1.92-1.004-1.86-2.12.06-1.116.96-1.978 2.08-1.922 1.12.056 1.08.91 1.02 2.028z" fill="#818181" paint-order="stroke fill markers"/>
  <path d="M103.923 121.79l.063 2.927c-2.54.052-2.145-3.208-.063-2.928z" opacity=".15" fill="#000000"/>
  <circle cx="103.997" cy="123.212" r="1.537" fill="#818181" paint-order="stroke fill markers"/>
  <path d="M103.933 121.677c-.823.034-1.473.71-1.473 1.535 0 .823.65 1.5 1.473 1.533-1.393-.523-1.09-2.773 0-3.068z" opacity=".15" fill="#0b0b0b" paint-order="stroke fill markers"/>
  <ellipse cx="95.202" cy="86.291" fill="#818181" paint-order="stroke fill markers"/>
  <ellipse cx="95.235" cy="83.084" fill="#818181" paint-order="stroke fill markers"/>
  <path d="M87.28 131.252c-1.116 0-2.022.906-2.022 2.024 0 .993.716 1.818 1.66 1.99-1.67-1.25-1.125-3.31.435-4.01-.024 0-.047-.004-.072-.004zm-3.904 3.856c-.056 1.116-.11 2.07-1.225 2.014-1.11-.056-1.92-1.004-1.86-2.12.06-1.116.96-1.978 2.08-1.922 1.12.056 1.08.91 1.02 2.028zm42.312-1.548c-.682.21-.7.928-.647 1.93.06 1.01.17 1.88 1 1.995-.87.05-1.06-3.693-.35-3.924zm-5.39-2.07c-.8.215-1.156 1.012-1.156 1.965 0 .954.357 1.75 1.155 1.966-1.055-.77-.923-3.37 0-3.93z" opacity=".15" fill="#000000" paint-order="stroke fill markers"/>
  <path d="M117.542 121.25c-1.48.99-1.478 2.807-.692 4.39-.39-1.314 3.38-4.09 4.007-2.62-.42-.843-.51-1.788-.144-2.58-.536-.79-2.462.265-3.17.81zm-13.9-7.637c.205-.07.41-.127.616-.118l.017-3.8c-.467.05-.44 2.11-.633 3.918z" opacity=".15" fill="#000000"/>
  <circle cx="96.36" cy="146.297" r="2.226" fill="#323232" paint-order="stroke fill markers"/>
  <circle cx="97.472" cy="145.656" r=".666" fill="#ffffff" paint-order="stroke fill markers"/>
  <path d="M104.12 117.992l.047 2.216c-1.92.04-1.623-2.427-.048-2.216z" opacity=".15" fill="#000000"/>
  <circle cx="104.175" cy="119.069" r="1.163" fill="#818181" paint-order="stroke fill markers"/>
  <path d="M104.127 117.908c-.623.026-1.115.538-1.115 1.16 0 .624.492 1.136 1.115 1.16-1.055-.395-.826-2.097 0-2.32z" opacity=".15" fill="#0b0b0b" paint-order="stroke fill markers"/>
  <path d="M104.202 114.88l.035 1.593c-1.38.028-1.166-1.743-.035-1.592z" opacity=".15" fill="#000000"/>
  <circle cx="104.243" cy="115.655" r=".835" fill="#818181" paint-order="stroke fill markers"/>
  <path d="M104.208 114.82c-.447.02-.8.387-.8.835 0 .447.353.815.8.833-.757-.284-.593-1.507 0-1.667z" opacity=".15" fill="#0b0b0b" paint-order="stroke fill markers"/>
</svg>